<svg xmlns="http://www.w3.org/2000/svg" version="1.1" xmlns:xlink="http://www.w3.org/1999/xlink" xmlns:svgjs="http://svgjs.dev/svgjs" width="1000" height="303" viewBox="0 0 1000 303"><g transform="matrix(1,0,0,1,-0.6060560459770841,0.580969832245188)"><svg viewBox="0 0 396 120" data-background-color="#ffffff" preserveAspectRatio="xMidYMid meet" height="303" width="1000" xmlns="http://www.w3.org/2000/svg" xmlns:xlink="http://www.w3.org/1999/xlink"><g id="tight-bounds" transform="matrix(1,0,0,1,0.23999819420691892,-0.2300870622753166)"><svg viewBox="0 0 395.52 120.45985872185607" height="120.45985872185607" width="395.52"><g><svg viewBox="0 0 601.9276412885602 183.32352000000003" height="120.45985872185607" width="395.52"><g transform="matrix(1,0,0,1,206.4076412885601,56.907513496499185)"><svg viewBox="0 0 395.52000000000004 69.50849300700166" height="69.50849300700166" width="395.52000000000004"><g id="textblocktransform"><svg viewBox="0 0 395.52000000000004 69.50849300700166" height="69.50849300700166" width="395.52000000000004" id="textblock"><g><svg viewBox="0 0 395.52000000000004 39.11303357996585" height="39.11303357996585" width="395.52000000000004"><g transform="matrix(1,0,0,1,0,0)"><svg width="395.52000000000004" viewBox="3.5 -34.349998474121094 351.3699951171875 34.75" height="39.11303357996585" data-palette-color="#3d3839"><path d="M8.5-13.3L7.55 0 3.5 0 5.95-33.7 11.1-33.7 15.55-21.4 20.95-5.7Q23.85-13.9 26.65-21.4L26.65-21.4 31.3-33.7 36.45-33.7 39.4 0 35.35 0 34.2-13.3 33-28.25Q30.35-20.85 27.55-13.3L27.55-13.3 22.85-0.75 19-0.75 14.55-13.3 9.45-27.95Q9.45-26 8.5-13.3L8.5-13.3ZM53.75-14.2L53.75-14.2 53.1-12.3 65.05-12.3 64.4-14.25 59.15-30.45Q58.55-28.3 53.75-14.2ZM51.95-8.85L48.95 0 44.6 0 56.35-33.7 61.95-33.7 73.5 0 69.15 0 66.2-8.85 51.95-8.85ZM89.34-33.7L89.34-8.65Q89.34 0 81.5 0L81.5 0Q78.7 0 76.75-1.1L76.75-1.1 76.75-5Q78.75-3.7 80.95-3.7L80.95-3.7Q85.3-3.7 85.3-8.3L85.3-8.3 85.3-33.7 89.34-33.7ZM125.79-17L125.79-17Q125.79-9.05 121.72-4.33 117.64 0.4 110.69 0.4L110.69 0.4Q103.84 0.4 99.69-4.35 95.54-9.1 95.54-17L95.54-17Q95.54-24.95 99.62-29.65 103.69-34.35 110.64-34.35L110.64-34.35Q117.74-34.35 121.77-29.68 125.79-25 125.79-17ZM99.79-17L99.79-17Q99.79-10.75 102.77-7.1 105.74-3.45 110.69-3.45L110.69-3.45Q115.84-3.45 118.67-7.05 121.49-10.65 121.49-17 121.49-23.35 118.64-26.95 115.79-30.55 110.64-30.55L110.64-30.55Q105.54-30.55 102.67-26.93 99.79-23.3 99.79-17ZM140.69-30.2L140.69-30.2 136.04-30.2 136.04-16.75 141.14-16.75Q144.59-16.75 146.42-18.63 148.24-20.5 148.24-23.45L148.24-23.45Q148.24-30.2 140.69-30.2ZM141.29-13.3L140.89-13.3 136.04-13.3 136.04 0 131.99 0 131.99-33.7 140.44-33.7Q146.29-33.7 149.32-30.95 152.34-28.2 152.34-23.35L152.34-23.35Q152.24-19.85 150.49-17.4 148.74-14.95 145.54-13.95L145.54-13.95 154.39 0 149.54 0 141.29-13.3ZM181.79 0L181.79 0 171.59 0 171.59-33.7 181.59-33.7Q189.04-33.7 193.81-29.08 198.59-24.45 198.59-17.1L198.59-17.1Q198.59-9.8 194.16-4.9 189.74 0 181.79 0ZM181.54-30.1L181.54-30.1 175.69-30.1 175.69-3.55 181.74-3.55Q187.99-3.55 191.19-7.43 194.39-11.3 194.39-17.1L194.39-17.1Q194.39-22.6 190.81-26.35 187.24-30.1 181.54-30.1ZM223.43-3.55L223.43 0 204.63 0 204.63-33.7 223.18-33.7 223.18-30.15 208.68-30.15 208.68-18.6 221.48-18.6 221.48-15.05 208.68-15.05 208.68-3.55 223.43-3.55ZM249.18-8.95L249.18-8.95Q249.18-4.5 246.13-2.08 243.08 0.35 238.28 0.35L238.28 0.35Q232.98 0.35 229.28-1.8L229.28-1.8 229.28-6.15Q232.93-3.4 238.18-3.4L238.18-3.4Q241.33-3.4 243.13-4.8 244.93-6.2 244.93-8.85L244.93-8.85Q244.93-9.95 244.51-10.83 244.08-11.7 243.11-12.43 242.13-13.15 241.26-13.63 240.38-14.1 238.88-14.8L238.88-14.8Q238.58-14.95 237.98-15.2L237.98-15.2Q235.83-16.15 234.71-16.75 233.58-17.35 232.06-18.53 230.53-19.7 229.83-21.25 229.13-22.8 229.13-24.85L229.13-24.85Q229.13-29.15 232.21-31.58 235.28-34 239.93-34L239.93-34Q244.28-34 247.33-32.45L247.33-32.45 247.33-28.2Q244.28-30.2 240.03-30.2L240.03-30.2Q236.98-30.2 235.18-28.78 233.38-27.35 233.38-25.05L233.38-25.05Q233.38-23.85 233.86-22.9 234.33-21.95 235.53-21.13 236.73-20.3 237.58-19.88 238.43-19.45 240.23-18.65L240.23-18.65Q241.93-17.9 242.83-17.48 243.73-17.05 245.16-16.13 246.58-15.2 247.31-14.33 248.03-13.45 248.61-12.03 249.18-10.6 249.18-8.95ZM260.23-33.7L260.23 0 256.18 0 256.18-33.7 260.23-33.7ZM294.48-2.8L294.53-2.65Q290.48 0.4 284.08 0.4L284.08 0.4Q276.28 0.4 271.53-4.23 266.78-8.85 266.78-16.9L266.78-16.9Q266.78-24.55 271.5-29.43 276.23-34.3 283.43-34.3L283.43-34.3Q289.38-34.3 293.28-32L293.28-32 293.28-27.65Q289.18-30.35 283.78-30.35L283.78-30.35Q278.13-30.35 274.58-26.68 271.03-23 271.03-16.9L271.03-16.9Q271.03-10.65 274.53-7.08 278.03-3.5 284.18-3.5L284.18-3.5Q287.58-3.5 290.48-4.85L290.48-4.85 290.48-15.35 283.08-15.35 283.08-18.9 294.53-18.9 294.53-2.8 294.48-2.8ZM305.77-14.2L305.77 0 301.72 0 301.72-33.7 306.82-33.7 315.27-19.5 323.82-4.9Q323.62-9.75 323.62-19.45L323.62-19.45 323.62-33.7 327.67-33.7 327.67 0 322.57 0 314.12-14.1Q311.57-18.35 309.42-22.03 307.27-25.7 306.37-27.3L306.37-27.3 305.52-28.85Q305.77-23.65 305.77-14.2L305.77-14.2ZM354.87-8.95L354.87-8.95Q354.87-4.5 351.82-2.08 348.77 0.35 343.97 0.35L343.97 0.35Q338.67 0.35 334.97-1.8L334.97-1.8 334.97-6.15Q338.62-3.4 343.87-3.4L343.87-3.4Q347.02-3.4 348.82-4.8 350.62-6.2 350.62-8.85L350.62-8.85Q350.62-9.95 350.2-10.83 349.77-11.7 348.8-12.43 347.82-13.15 346.95-13.63 346.07-14.1 344.57-14.8L344.57-14.8Q344.27-14.95 343.67-15.2L343.67-15.2Q341.52-16.15 340.4-16.75 339.27-17.35 337.75-18.53 336.22-19.7 335.52-21.25 334.82-22.8 334.82-24.85L334.82-24.85Q334.82-29.15 337.9-31.58 340.97-34 345.62-34L345.62-34Q349.97-34 353.02-32.45L353.02-32.45 353.02-28.2Q349.97-30.2 345.72-30.2L345.72-30.2Q342.67-30.2 340.87-28.78 339.07-27.35 339.07-25.05L339.07-25.05Q339.07-23.85 339.55-22.9 340.02-21.95 341.22-21.13 342.42-20.3 343.27-19.88 344.12-19.45 345.92-18.65L345.92-18.65Q347.62-17.9 348.52-17.48 349.42-17.05 350.85-16.13 352.27-15.2 353-14.33 353.72-13.45 354.3-12.03 354.87-10.6 354.87-8.95Z" opacity="1" transform="matrix(1,0,0,1,0,0)" fill="#3d3839" class="wordmark-text-0" data-fill-palette-color="primary" id="text-0"></path></svg></g></svg></g><g transform="matrix(1,0,0,1,163.31020800000002,48.346682095389866)"><svg viewBox="0 0 232.20979200000002 21.16181091161179" height="21.16181091161179" width="232.20979200000002"><g transform="matrix(1,0,0,1,0,0)"><svg width="232.20979200000002" viewBox="0.4000000059604645 -34.93000030517578 519.25 47.33000183105469" height="21.16181091161179" data-palette-color="#ffc604"><path d="M11.6-13.13L0.4-31.85 6.08-31.85 14.55-17.15 13.5-17.15 22.18-31.85 27.8-31.85 16.38-13.13 16.38 0 11.6 0 11.6-13.13ZM38.55 0.65L38.55 0.65Q35.27 0.65 32.69-0.78 30.1-2.2 28.6-5.03 27.1-7.85 27.1-12L27.1-12Q27.1-16.23 28.6-19.04 30.1-21.85 32.69-23.28 35.27-24.7 38.55-24.7L38.55-24.7Q41.77-24.7 44.35-23.28 46.92-21.85 48.41-19.04 49.9-16.23 49.9-12L49.9-12Q49.9-7.85 48.41-5.03 46.92-2.2 44.35-0.78 41.77 0.65 38.55 0.65ZM38.4-3.5L38.4-3.5Q40.47-3.5 41.98-4.5 43.5-5.5 44.31-7.41 45.12-9.33 45.12-12L45.12-12Q45.12-16.1 43.46-18.35 41.8-20.6 38.67-20.6L38.67-20.6Q36.57-20.6 35.06-19.59 33.55-18.57 32.73-16.66 31.92-14.75 31.92-12L31.92-12Q31.92-7.98 33.6-5.74 35.27-3.5 38.4-3.5ZM73.45 0L73.45-24.13 78.22-24.13 78.22 0 73.45 0ZM56.65-8.8L56.65-24.13 61.4-24.13 61.4-9.22Q61.4-6.5 62.73-5.1 64.07-3.7 66.5-3.7L66.5-3.7Q68.55-3.7 70.11-4.78 71.67-5.85 72.56-7.83 73.45-9.8 73.45-12.5L73.45-12.5 74.97-12.5Q74.97-8.28 73.82-5.4 72.67-2.53 70.59-1.04 68.52 0.45 65.75 0.45L65.75 0.45Q63.1 0.45 61.03-0.53 58.97-1.5 57.81-3.54 56.65-5.58 56.65-8.8L56.65-8.8ZM92.72 0L87.97 0 87.97-24.13 92.72-24.13 92.72 0ZM92.72-10.75L91.42-10.75Q91.42-15.38 92.38-18.44 93.34-21.5 95.08-23 96.82-24.5 99.17-24.5L99.17-24.5Q99.87-24.5 100.48-24.4 101.09-24.3 101.69-24.13L101.69-24.13 101.52-19.4Q100.84-19.58 100.06-19.71 99.27-19.85 98.62-19.85L98.62-19.85Q96.57-19.85 95.27-18.76 93.97-17.68 93.34-15.64 92.72-13.6 92.72-10.75L92.72-10.75ZM122.76 0L114.79-24.05 119.74-24.05 125.46-4.75 124.94-4.75 130.46-22.83 134.59-22.83 140.09-4.7 139.59-4.7 145.31-24.05 150.06-24.05 142.16 0 137.51 0 132.06-17 132.79-17 127.41 0 122.76 0ZM164.44 0.65L164.44 0.65Q161.34 0.65 158.84-0.95 156.34-2.55 154.87-5.4 153.41-8.25 153.41-12L153.41-12Q153.41-15.98 154.86-18.81 156.31-21.65 158.81-23.18 161.31-24.7 164.44-24.7L164.44-24.7Q167.24-24.7 169.24-23.56 171.24-22.43 172.46-20.51 173.69-18.6 174.15-16.18 174.61-13.75 174.31-11.18L174.31-11.18 157.21-11.18 157.21-13.93 171.06-13.93 169.91-13.18Q169.99-14.53 169.77-15.88 169.56-17.23 168.96-18.36 168.36-19.5 167.27-20.19 166.19-20.88 164.51-20.88L164.51-20.88Q162.41-20.88 161-19.83 159.59-18.78 158.86-17.01 158.13-15.25 158.13-13.15L158.13-13.15 158.13-11.23Q158.13-8.9 158.84-7.1 159.53-5.3 160.92-4.26 162.31-3.23 164.44-3.23L164.44-3.23Q166.51-3.23 167.87-4.2 169.24-5.18 169.56-7.13L169.56-7.13 174.41-7.13Q174.03-4.78 172.69-3.03 171.34-1.28 169.22-0.31 167.11 0.65 164.44 0.65ZM193.41 0.65L193.41 0.65Q191.06 0.65 189.15-0.61 187.23-1.88 186.09-4.35 184.96-6.83 184.96-10.43L184.96-10.43 186.58-10.43Q186.58-8.33 187.5-6.8 188.41-5.28 189.83-4.46 191.26-3.65 192.81-3.65L192.81-3.65Q194.66-3.65 196.15-4.67 197.63-5.7 198.52-7.61 199.41-9.53 199.41-12.13L199.41-12.13Q199.41-14.7 198.53-16.56 197.66-18.43 196.16-19.44 194.66-20.45 192.76-20.45L192.76-20.45Q191.16-20.45 189.75-19.68 188.33-18.9 187.46-17.39 186.58-15.88 186.58-13.7L186.58-13.7 184.96-13.7Q184.96-17.23 186.06-19.68 187.16-22.13 189.12-23.41 191.08-24.7 193.73-24.7L193.73-24.7Q196.61-24.7 199-23.16 201.38-21.63 202.82-18.8 204.26-15.98 204.26-12.13L204.26-12.13Q204.26-8.25 202.78-5.39 201.31-2.53 198.85-0.94 196.38 0.65 193.41 0.65ZM185.06 0L181.83 0 181.83-34.18 186.58-34.18 186.58-5.78 185.06 0ZM220.71 0.65L220.71 0.65Q217.21 0.65 214.81-0.34 212.41-1.33 211.14-3.09 209.88-4.85 209.83-7.23L209.83-7.23 214.31-7.23Q214.41-5.15 215.97-4.15 217.53-3.15 220.21-3.15L220.21-3.15Q221.63-3.15 222.79-3.6 223.96-4.05 224.64-4.83 225.33-5.6 225.33-6.58L225.33-6.58Q225.33-7.8 224.43-8.51 223.53-9.22 221.53-9.78L221.53-9.78 216.61-11.45Q213.66-12.45 212.08-14.11 210.51-15.78 210.51-18.1L210.51-18.1Q210.51-21.08 213.16-22.89 215.81-24.7 220.18-24.7L220.18-24.7Q224.71-24.7 227.17-22.79 229.63-20.88 229.73-18L229.73-18 225.16-18Q224.98-19.43 223.74-20.19 222.51-20.95 220.18-20.95L220.18-20.95Q218.01-20.95 216.77-20 215.53-19.05 215.53-17.85L215.53-17.85Q215.53-15.7 219.23-14.65L219.23-14.65 224.41-12.83Q227.36-11.88 228.96-10.38 230.56-8.88 230.56-6.58L230.56-6.58Q230.56-4.73 229.33-3.08 228.11-1.43 225.89-0.39 223.68 0.65 220.71 0.65ZM240.98-29.18L240.98-29.18Q239.55-29.18 238.74-29.96 237.93-30.75 237.93-32.1L237.93-32.1Q237.93-33.4 238.74-34.16 239.55-34.93 240.98-34.93L240.98-34.93Q242.38-34.93 243.19-34.16 244-33.4 244-32.1L244-32.1Q244-30.75 243.19-29.96 242.38-29.18 240.98-29.18ZM243.35 0L238.6 0 238.6-24.13 243.35-24.13 243.35 0ZM261.5 0.65L261.5 0.65Q259.45 0.65 257.8-0.13 256.15-0.9 255.19-2.46 254.23-4.03 254.23-6.4L254.23-6.4 254.23-30.6 258.95-30.6 258.95-6.55Q258.95-3.15 262.13-3.15L262.13-3.15Q263.1-3.15 264.03-3.36 264.95-3.58 266.13-4L266.13-4 266.8-0.63Q265.48-0.08 264.19 0.29 262.9 0.65 261.5 0.65ZM266.08-20.83L250.55-20.83 250.55-24.05 266.08-24.05 266.08-20.83ZM281.6 0.65L281.6 0.65Q278.5 0.65 276-0.95 273.5-2.55 272.04-5.4 270.57-8.25 270.57-12L270.57-12Q270.57-15.98 272.02-18.81 273.47-21.65 275.97-23.18 278.47-24.7 281.6-24.7L281.6-24.7Q284.4-24.7 286.4-23.56 288.4-22.43 289.62-20.51 290.85-18.6 291.31-16.18 291.77-13.75 291.47-11.18L291.47-11.18 274.37-11.18 274.37-13.93 288.22-13.93 287.07-13.18Q287.15-14.53 286.94-15.88 286.72-17.23 286.12-18.36 285.52-19.5 284.44-20.19 283.35-20.88 281.67-20.88L281.67-20.88Q279.57-20.88 278.16-19.83 276.75-18.78 276.02-17.01 275.3-15.25 275.3-13.15L275.3-13.15 275.3-11.23Q275.3-8.9 276-7.1 276.7-5.3 278.09-4.26 279.47-3.23 281.6-3.23L281.6-3.23Q283.67-3.23 285.04-4.2 286.4-5.18 286.72-7.13L286.72-7.13 291.57-7.13Q291.2-4.78 289.85-3.03 288.5-1.28 286.39-0.31 284.27 0.65 281.6 0.65ZM299.05 6.03L299.05 6.03 295.5 4.25Q297.02 3.48 298.12 2.53 299.22 1.58 299.57 0.25L299.57 0.25Q298.37 0.08 297.52-0.68 296.67-1.43 296.67-2.65L296.67-2.65Q296.67-3.9 297.61-4.76 298.55-5.63 300-5.63L300-5.63Q301.82-5.63 302.91-4.33 304-3.03 304-1.23L304-1.23Q304 0.85 302.71 2.84 301.42 4.83 299.05 6.03ZM328.51 0L318.74-24.05 324.06-24.05 331.31-4.15 330.34-4.15 336.17-24.05 341.01-24.05 331.89 4.63Q330.64 8.53 328.68 10.46 326.71 12.4 323.76 12.4L323.76 12.4Q322.12 12.4 320.6 11.98 319.09 11.55 317.51 10.73L317.51 10.73 317.51 6.45Q318.87 7.4 320.12 7.83 321.37 8.25 322.71 8.25L322.71 8.25Q324.06 8.25 325.03 7.44 325.99 6.63 326.65 5.29 327.31 3.95 327.79 2.38L327.79 2.38 328.51 0ZM355.69 0.65L355.69 0.65Q352.41 0.65 349.82-0.78 347.24-2.2 345.74-5.03 344.24-7.85 344.24-12L344.24-12Q344.24-16.23 345.74-19.04 347.24-21.85 349.82-23.28 352.41-24.7 355.69-24.7L355.69-24.7Q358.91-24.7 361.49-23.28 364.06-21.85 365.55-19.04 367.04-16.23 367.04-12L367.04-12Q367.04-7.85 365.55-5.03 364.06-2.2 361.49-0.78 358.91 0.65 355.69 0.65ZM355.54-3.5L355.54-3.5Q357.61-3.5 359.13-4.5 360.64-5.5 361.45-7.41 362.26-9.33 362.26-12L362.26-12Q362.26-16.1 360.6-18.35 358.94-20.6 355.81-20.6L355.81-20.6Q353.71-20.6 352.2-19.59 350.69-18.57 349.88-16.66 349.06-14.75 349.06-12L349.06-12Q349.06-7.98 350.74-5.74 352.41-3.5 355.54-3.5ZM390.58 0L390.58-24.13 395.36-24.13 395.36 0 390.58 0ZM373.78-8.8L373.78-24.13 378.53-24.13 378.53-9.22Q378.53-6.5 379.87-5.1 381.21-3.7 383.63-3.7L383.63-3.7Q385.69-3.7 387.25-4.78 388.81-5.85 389.7-7.83 390.58-9.8 390.58-12.5L390.58-12.5 392.11-12.5Q392.11-8.28 390.96-5.4 389.81-2.53 387.74-1.04 385.66 0.45 382.88 0.45L382.88 0.45Q380.24 0.45 378.17-0.53 376.11-1.5 374.95-3.54 373.78-5.58 373.78-8.8L373.78-8.8ZM409.86 0L405.11 0 405.11-24.13 409.86-24.13 409.86 0ZM409.86-10.75L408.56-10.75Q408.56-15.38 409.52-18.44 410.48-21.5 412.22-23 413.96-24.5 416.31-24.5L416.31-24.5Q417.01-24.5 417.62-24.4 418.23-24.3 418.83-24.13L418.83-24.13 418.66-19.4Q417.98-19.58 417.19-19.71 416.41-19.85 415.76-19.85L415.76-19.85Q413.71-19.85 412.41-18.76 411.11-17.68 410.48-15.64 409.86-13.6 409.86-10.75L409.86-10.75ZM439.9 0L431.93-24.05 436.88-24.05 442.6-4.75 442.08-4.75 447.6-22.83 451.73-22.83 457.23-4.7 456.73-4.7 462.45-24.05 467.2-24.05 459.3 0 454.65 0 449.2-17 449.93-17 444.55 0 439.9 0ZM492.18 0L488.03 0 487.43-5.53 487.43-15.55Q487.43-18.5 486.2-19.84 484.98-21.18 482.33-21.18L482.33-21.18Q480.83-21.18 479.66-20.74 478.5-20.3 477.84-19.43 477.18-18.55 477.18-17.23L477.18-17.23 471.93-17.23Q471.93-19.88 473.23-21.53 474.53-23.18 476.86-23.94 479.2-24.7 482.33-24.7L482.33-24.7Q485.25-24.7 487.48-23.74 489.7-22.78 490.94-20.73 492.18-18.68 492.18-15.43L492.18-15.43 492.18 0ZM479.98 0.65L479.98 0.65Q476.95 0.65 474.95-0.41 472.95-1.48 471.96-3.2 470.98-4.93 470.98-6.88L470.98-6.88Q470.98-9.25 472.19-10.79 473.4-12.33 475.55-13.08 477.7-13.83 480.5-13.83L480.5-13.83Q482.43-13.83 484.25-13.48 486.08-13.13 487.85-12.55L487.85-12.55 487.85-9.68Q486.4-10.2 484.64-10.51 482.88-10.83 481.35-10.83L481.35-10.83Q479.08-10.83 477.55-9.93 476.03-9.03 476.03-6.88L476.03-6.88Q476.03-5.3 477.23-4.16 478.43-3.03 481.03-3.03L481.03-3.03Q482.93-3.03 484.38-3.89 485.83-4.75 486.63-6.05 487.43-7.35 487.43-8.65L487.43-8.65 488.58-8.65Q488.58-6.15 487.56-4.04 486.55-1.93 484.63-0.64 482.7 0.65 479.98 0.65ZM507.15 0L497.37-24.05 502.7-24.05 509.95-4.15 508.97-4.15 514.8-24.05 519.65-24.05 510.52 4.63Q509.27 8.53 507.31 10.46 505.35 12.4 502.4 12.4L502.4 12.4Q500.75 12.4 499.24 11.98 497.72 11.55 496.15 10.73L496.15 10.73 496.15 6.45Q497.5 7.4 498.75 7.83 500 8.25 501.35 8.25L501.35 8.25Q502.7 8.25 503.66 7.44 504.62 6.63 505.29 5.29 505.95 3.95 506.42 2.38L506.42 2.38 507.15 0Z" opacity="1" transform="matrix(1,0,0,1,0,0)" fill="#ffc604" class="slogan-text-1" data-fill-palette-color="secondary" id="text-1"></path></svg></g></svg></g></svg></g></svg></g><g><svg viewBox="0 0 183.32352000000003 183.32352000000003" height="183.32352000000003" width="183.32352000000003"><g><svg viewBox="0 0 183.32352000000003 183.32352000000003" height="183.32352000000003" width="183.32352000000003"><g transform="matrix(1,0,0,1,48.451991952337444,51.81776190506356)"><svg viewBox="0 0 86.41953609532514 79.6879961898729" height="79.6879961898729" width="86.41953609532514"><g><svg xmlns="http://www.w3.org/2000/svg" xmlns:xlink="http://www.w3.org/1999/xlink" version="1.1" x="0" y="0" viewBox="50 66 412.1000061035156 380" style="enable-background:new 0 0 512 512;" xml:space="preserve" height="79.6879961898729" width="86.41953609532514" class="icon-s-0" data-fill-palette-color="accent" id="s-0"><g fill="#ffc604" data-fill-palette-color="accent"><path d="M50 326.9c0 12.8 10.7 23.1 23.6 23.1h364.9c12.8 0 23.6-10.3 23.6-23.1V306H50V326.9z" fill="#ffc604" data-fill-palette-color="accent"></path><path d="M263.2 179.2C263.2 179.2 263.2 179.2 263.2 179.2c0-4.5-3.7-8.2-8.2-8.2-4.5 0-8.2 3.7-8.2 8.2s3.7 8.2 8.2 8.2C259.6 187.4 263.2 183.7 263.2 179.2z" fill="#ffc604" data-fill-palette-color="accent"></path><path d="M255.1 116.1c-4.5 0-8.2 3.7-8.2 8.2 0 4.5 3.7 8.2 8.2 8.2 4.5 0 8.2-3.7 8.2-8.2 0 0 0 0 0 0C263.2 119.8 259.6 116.1 255.1 116.1z" fill="#ffc604" data-fill-palette-color="accent"></path><path d="M255.1 227.7c-4.5 0-8.2 3.7-8.2 8.2 0 4.5 3.7 8.2 8.2 8.2 4.5 0 8.2-3.7 8.2-8.2C263.2 231.4 259.6 227.7 255.1 227.7z" fill="#ffc604" data-fill-palette-color="accent"></path><path d="M200.2 171c-4.5 0-8.2 3.7-8.2 8.2s3.7 8.2 8.2 8.2c4.5 0 8.2-3.7 8.2-8.2 0 0 0 0 0 0C208.4 174.6 204.7 171 200.2 171z" fill="#ffc604" data-fill-palette-color="accent"></path><path d="M200.2 132.5c4.5 0 8.2-3.7 8.2-8.2 0-4.5-3.7-8.2-8.2-8.2-4.5 0-8.2 3.7-8.2 8.2 0 0 0 0 0 0C192 128.8 195.7 132.5 200.2 132.5z" fill="#ffc604" data-fill-palette-color="accent"></path><path d="M200.2 227.7c-4.5 0-8.2 3.7-8.2 8.2 0 4.5 3.7 8.2 8.2 8.2 4.5 0 8.2-3.7 8.2-8.2 0 0 0 0 0 0C208.4 231.4 204.7 227.7 200.2 227.7z" fill="#ffc604" data-fill-palette-color="accent"></path><path d="M438.4 66H73.6C60.7 66 50.2 76.4 50 89.2V294h412V89.2C461.8 76.4 451.3 66 438.4 66zM291.6 124.3c0-11.1 9-20.2 20.2-20.2 11.2 0 20.2 9 20.2 20.2s-9 20.2-20.2 20.2S291.6 135.5 291.6 124.3C291.6 124.3 291.6 124.3 291.6 124.3zM200.2 256.1c-11.2 0-20.2-9-20.2-20.2 0-11.2 9-20.2 20.2-20.2 11.2 0 20.2 9 20.2 20.2C220.4 247.1 211.3 256.1 200.2 256.1zM275.2 235.9c0 11.2-9 20.2-20.1 20.3-11.2 0-20.2-9-20.3-20.1 0-1.8 0.2-3.6 0.7-5.3L203.8 199c-11 2-21.5-5.2-23.6-16.2-0.2-1.2-0.3-2.4-0.3-3.7 0-8.7 6.1-16.1 13.1-18.9v-17c-7-2.8-13.1-10.2-13.1-18.9 0-11.1 9-20.2 20.2-20.2s20.2 9 20.2 20.2c0 0 0 0 0 0 0.1 9.3-6.2 17.3-15.2 19.5v15.8c10.8 2.7 17.4 13.7 14.7 24.5-0.8 3.4-2.5 6.4-4.9 8.9l27.4 27.3c2.3-1.9 5-3.3 7.9-4v-17.7c-10.8-2.8-17.3-13.8-14.5-24.6 2.8-10.8 13.8-17.3 24.6-14.5 10.8 2.8 17.3 13.8 14.5 24.6-1.7 6.4-6.4 11.6-12.6 13.9V217C269.9 219.9 275.2 227.5 275.2 235.9L275.2 235.9zM319 198.1V217c7 2.8 13.1 10.2 13.1 18.9 0 11.1-9 20.2-20.2 20.2-11.1 0-20.2-9-20.2-20.2 0 0 0 0 0 0-0.1-9.3 6.2-17.3 15.2-19.5v-17.7c-10.8-2.7-17.4-13.7-14.6-24.5 0.3-1.3 0.8-2.6 1.4-3.9l-28.5-28.6c-9.7 5.7-22.1 2.5-27.8-7.1-5.7-9.7-2.5-22.1 7.1-27.8 9.7-5.7 22.1-2.5 27.8 7.1 3.4 5.8 3.8 12.9 0.9 18.9l28.6 28.8c3-1.7 6.4-2.6 9.9-2.6 11.2 0 20.2 9 20.3 20.2C332.1 187.8 326 195.3 319 198.1z" fill="#ffc604" data-fill-palette-color="accent"></path><path d="M311.8 132.5c4.5 0 8.2-3.7 8.2-8.2 0-4.5-3.7-8.2-8.2-8.2-4.5 0-8.2 3.7-8.2 8.2 0 0 0 0 0 0C303.6 128.8 307.3 132.5 311.8 132.5z" fill="#ffc604" data-fill-palette-color="accent"></path><path d="M311.8 171c-4.5 0-8.2 3.7-8.2 8.2s3.7 8.2 8.2 8.2 8.2-3.7 8.2-8.2c0 0 0 0 0 0C320 174.6 316.3 171 311.8 171z" fill="#ffc604" data-fill-palette-color="accent"></path><path d="M311.8 227.7c-4.5 0-8.2 3.7-8.2 8.2 0 4.5 3.7 8.2 8.2 8.2 4.5 0 8.2-3.7 8.2-8.2C320 231.4 316.3 227.7 311.8 227.7z" fill="#ffc604" data-fill-palette-color="accent"></path><path d="M351.2 434H318v-78H194v78h-27.9c-3.3 0-6 2.7-6 6s2.7 6 6 6h185c3.3 0 6-2.7 6-6S354.5 434 351.2 434z" fill="#ffc604" data-fill-palette-color="accent"></path></g></svg></g></svg></g><g><path d="M11.602 68.023l5.419 2.461-0.626 1.693-13.743-6.239 0.799-2.162 5.844 0.044 7.415 0.167c-1.99-1.657-3.888-3.263-5.696-4.817v0l-4.436-3.853 0.799-2.161 14.576 3.985-0.626 1.693-5.747-1.571-6.453-1.822c1.79 1.506 3.599 3.039 5.426 4.601v0l4.519 3.914-0.595 1.61-5.941-0.069-6.927-0.136c0.543 0.201 2.54 1.088 5.993 2.662z" fill="#ffc604" data-fill-palette-color="accent"></path><path d="M22.267 45.166v0l0.52 0.73 3.116-4.333-0.874-0.272-7.241-2.319c0.414 0.519 1.907 2.583 4.479 6.194zM23.74 47.22l2.427 3.392-1.136 1.579-9.159-13.048 1.462-2.033 15.233 4.6-1.13 1.572-3.982-1.229z" fill="#ffc604" data-fill-palette-color="accent"></path><path d="M30.068 23.026l7.696 8.127c1.77 1.869 1.807 3.606 0.113 5.21v0c-0.608 0.576-1.235 0.945-1.879 1.107v0l-1.201-1.268c0.7-0.132 1.286-0.421 1.76-0.869v0c0.942-0.892 0.941-1.835-0.001-2.83v0l-7.799-8.236z" fill="#ffc604" data-fill-palette-color="accent"></path><path d="M53.165 16.314v0c1.249 2.011 1.727 3.934 1.434 5.768-0.284 1.836-1.305 3.3-3.062 4.391v0c-1.734 1.077-3.501 1.34-5.299 0.79-1.795-0.545-3.313-1.818-4.555-3.818v0c-1.249-2.011-1.727-3.934-1.434-5.768 0.291-1.825 1.318-3.285 3.081-4.38v0c1.791-1.112 3.564-1.396 5.321-0.85 1.754 0.555 3.259 1.844 4.514 3.867zM43.301 22.44v0c0.982 1.582 2.135 2.6 3.459 3.054 1.327 0.46 2.617 0.3 3.871-0.478v0c1.299-0.807 2.024-1.891 2.173-3.252 0.147-1.352-0.278-2.83-1.274-4.435-0.997-1.605-2.138-2.642-3.424-3.111-1.288-0.46-2.582-0.287-3.881 0.52v0c-1.294 0.804-2.021 1.889-2.181 3.257-0.151 1.37 0.268 2.852 1.257 4.445z" fill="#ffc604" data-fill-palette-color="accent"></path><path d="M62.518 6.303v0l-1.963 0.673 1.949 5.681 2.152-0.739c0.975-0.335 1.627-0.853 1.954-1.556 0.335-0.705 0.359-1.473 0.075-2.304v0c-0.652-1.9-2.041-2.485-4.167-1.755zM65.223 13.358l-0.169 0.059-2.048 0.702 1.926 5.615-1.717 0.589-4.885-14.239 3.576-1.227c1.648-0.565 3.03-0.607 4.144-0.125 1.121 0.48 1.917 1.406 2.387 2.778v0c0.305 0.992 0.331 1.918 0.078 2.778-0.26 0.862-0.792 1.586-1.596 2.172v0l5.76 4.616-2.047 0.702z" fill="#ffc604" data-fill-palette-color="accent"></path><path d="M92.898 15.11v0l-4.559-0.058 0.19-15.052 4.469 0.056c2.221 0.028 4.031 0.739 5.43 2.134 1.406 1.395 2.095 3.186 2.067 5.374v0c-0.027 2.175-0.709 3.985-2.044 5.431-1.335 1.44-3.186 2.145-5.553 2.115zM92.958 1.662v0l-2.614-0.033-0.15 11.861 2.704 0.034c1.862 0.024 3.276-0.534 4.241-1.673 0.966-1.145 1.459-2.582 1.481-4.311v0c0.021-1.636-0.494-3.019-1.544-4.15-1.05-1.131-2.423-1.707-4.118-1.728z" fill="#ffc604" data-fill-palette-color="accent"></path><path d="M115.354 16.773l-0.357 1.546-8.184-1.888 3.383-14.669 8.078 1.864-0.357 1.545-6.308-1.455-1.16 5.026 5.57 1.284-0.356 1.546-5.57-1.285-1.155 5.006z" fill="#ffc604" data-fill-palette-color="accent"></path><path d="M130.832 20.702v0c-0.547 1.213-1.38 1.96-2.5 2.243-1.129 0.286-2.345 0.136-3.648-0.452v0c-1.437-0.648-2.526-1.493-3.267-2.535v0l0.795-1.764c0.658 1.194 1.699 2.112 3.125 2.755v0c0.855 0.385 1.614 0.498 2.277 0.337 0.657-0.163 1.147-0.603 1.469-1.318v0c0.137-0.303 0.201-0.599 0.193-0.887-0.009-0.288-0.103-0.59-0.282-0.904-0.17-0.318-0.345-0.593-0.524-0.827-0.185-0.237-0.437-0.544-0.756-0.921v0c-0.062-0.072-0.159-0.181-0.29-0.328v0c-0.467-0.517-0.819-0.927-1.054-1.23-0.229-0.3-0.479-0.701-0.749-1.202-0.273-0.51-0.41-1.016-0.409-1.52 0.003-0.509 0.131-1.043 0.382-1.6v0c0.525-1.164 1.352-1.889 2.48-2.176 1.132-0.278 2.328-0.132 3.59 0.437v0c1.182 0.533 2.094 1.196 2.736 1.989v0l-0.779 1.727c-0.587-0.914-1.457-1.631-2.609-2.15v0c-0.831-0.375-1.576-0.477-2.236-0.308-0.663 0.161-1.136 0.553-1.417 1.178v0c-0.148 0.327-0.217 0.65-0.207 0.968 0.019 0.315 0.138 0.657 0.358 1.026 0.226 0.372 0.429 0.667 0.607 0.887 0.178 0.219 0.464 0.548 0.857 0.988v0c0.368 0.414 0.647 0.733 0.837 0.957 0.191 0.225 0.424 0.549 0.7 0.973 0.276 0.424 0.459 0.802 0.55 1.134 0.087 0.324 0.122 0.715 0.105 1.174-0.021 0.45-0.132 0.9-0.334 1.349z" fill="#ffc604" data-fill-palette-color="accent"></path><path d="M145.122 16.622l-8.252 12.59-1.511-0.99 8.253-12.59z" fill="#ffc604" data-fill-palette-color="accent"></path><path d="M152.008 41.229l-0.028 0.057c-1.499-0.183-2.933-0.938-4.304-2.266v0c-1.667-1.615-2.531-3.409-2.592-5.384-0.06-1.974 0.745-3.824 2.416-5.548v0c1.582-1.634 3.384-2.481 5.405-2.542 2.026-0.066 3.808 0.647 5.347 2.136v0c1.271 1.231 2.086 2.497 2.446 3.798v0l-1.354 1.398c-0.319-1.429-1.055-2.702-2.206-3.817v0c-1.209-1.17-2.575-1.729-4.098-1.676-1.518 0.048-2.909 0.724-4.172 2.028v0c-1.295 1.338-1.941 2.75-1.935 4.236 0.01 1.491 0.674 2.875 1.993 4.152v0c0.726 0.703 1.539 1.212 2.437 1.526v0l3.262-3.368-2.38-2.304 1.104-1.139 3.676 3.56-5.003 5.167z" fill="#ffc604" data-fill-palette-color="accent"></path><path d="M161.583 45.827l-5.349 3.413-0.976-1.531 12.69-8.097 1.229 1.926-3.32 6.591-3.445 6.731c1.19-0.83 3.002-2.022 5.435-3.575v0l5.365-3.423 0.971 1.522-12.69 8.097-1.223-1.917 3.278-6.565c0.659-1.328 1.277-2.554 1.853-3.679 0.582-1.128 1-1.932 1.255-2.411v0l0.385-0.695c-1.267 0.895-3.086 2.099-5.458 3.613z" fill="#ffc604" data-fill-palette-color="accent"></path><path d="M170.97 70.987v0c-1.252 0.449-2.369 0.37-3.35-0.238-0.99-0.613-1.727-1.592-2.21-2.938v0c-0.533-1.483-0.682-2.854-0.448-4.11v0l1.821-0.654c-0.401 1.303-0.338 2.69 0.191 4.16v0c0.317 0.883 0.764 1.507 1.339 1.872 0.574 0.359 1.23 0.406 1.97 0.141v0c0.313-0.112 0.57-0.272 0.771-0.478 0.201-0.207 0.353-0.484 0.454-0.831 0.11-0.343 0.187-0.661 0.231-0.952 0.042-0.298 0.087-0.692 0.137-1.183v0c0.008-0.095 0.02-0.24 0.034-0.436v0c0.047-0.695 0.098-1.233 0.152-1.613 0.057-0.374 0.171-0.832 0.344-1.374 0.177-0.551 0.446-1.001 0.809-1.351 0.368-0.351 0.841-0.63 1.416-0.837v0c1.202-0.431 2.298-0.341 3.288 0.272 0.986 0.621 1.713 1.583 2.181 2.884v0c0.438 1.221 0.595 2.337 0.471 3.35v0l-1.784 0.641c0.249-1.058 0.16-2.181-0.267-3.371v0c-0.308-0.858-0.752-1.465-1.332-1.821-0.576-0.365-1.187-0.432-1.832-0.201v0c-0.338 0.121-0.618 0.296-0.84 0.524-0.213 0.232-0.376 0.556-0.489 0.97-0.11 0.421-0.182 0.772-0.215 1.053-0.034 0.281-0.072 0.715-0.116 1.303v0c-0.042 0.552-0.078 0.975-0.106 1.268-0.029 0.293-0.1 0.686-0.213 1.178-0.113 0.493-0.257 0.887-0.433 1.184-0.172 0.288-0.429 0.585-0.772 0.892-0.338 0.298-0.739 0.53-1.202 0.696z" fill="#ffc604" data-fill-palette-color="accent"></path><path d="M12.136 118.782l-5.825 1.708-0.643-1.73 14.77-4.299 0.817 2.198-4.54 3.848-5.849 4.793c2.637-0.044 5.173-0.064 7.608-0.062v0l5.983 0.032 0.82 2.207-13.915 6.6-0.643-1.73 5.495-2.596 6.186-2.886c-2.381 0.027-4.795 0.041-7.243 0.043v0l-6.102-0.009-0.612-1.646 4.652-3.89 5.446-4.504c-0.555 0.206-2.69 0.847-6.405 1.923z" fill="#ffc604" data-fill-palette-color="accent"></path><path d="M23.488 141.131v0l-0.873 0.274 3.187 4.405 0.544-0.762 4.584-6.259c-0.633 0.236-3.114 1.017-7.442 2.342zM21.037 141.895l-4.067 1.254-1.158-1.6 15.566-4.66 1.497 2.07-9.351 13.251-1.163-1.608 2.482-3.445z" fill="#ffc604" data-fill-palette-color="accent"></path><path d="M43.269 150.303l-7.822 8.296c-1.802 1.911-3.569 2.051-5.302 0.418v0c-0.619-0.584-1.03-1.2-1.233-1.848v0l1.218-1.292c0.176 0.705 0.506 1.286 0.99 1.742v0c0.963 0.908 1.923 0.854 2.882-0.163v0l7.931-8.412z" fill="#ffc604" data-fill-palette-color="accent"></path><path d="M55.486 167.462v0c-1.27 2.053-2.809 3.365-4.616 3.936-1.804 0.565-3.603 0.294-5.396-0.815v0c-1.77-1.095-2.811-2.587-3.12-4.476-0.313-1.883 0.161-3.845 1.424-5.887v0c1.27-2.053 2.805-3.36 4.606-3.919 1.799-0.569 3.597-0.297 5.395 0.815v0c1.833 1.133 2.892 2.625 3.179 4.476 0.296 1.848-0.195 3.805-1.472 5.87zM45.415 161.233v0c-0.997 1.612-1.403 3.128-1.218 4.548 0.185 1.42 0.917 2.526 2.195 3.317v0c1.329 0.822 2.647 0.992 3.954 0.51 1.303-0.476 2.462-1.535 3.477-3.175 1.014-1.64 1.441-3.152 1.28-4.534-0.162-1.382-0.907-2.485-2.237-3.307v0c-1.318-0.815-2.636-0.985-3.954-0.51-1.327 0.477-2.493 1.527-3.497 3.151z" fill="#ffc604" data-fill-palette-color="accent"></path><path d="M67.802 165.749v0l-2.002-0.682-1.976 5.797 2.191 0.747c0.995 0.339 1.845 0.327 2.552-0.036 0.707-0.363 1.204-0.967 1.492-1.811v0c0.661-1.939-0.092-3.277-2.257-4.015zM65.576 173.116l-0.17-0.058-2.087-0.711-1.954 5.732-1.746-0.596 4.949-14.522 3.635 1.239c1.681 0.573 2.82 1.404 3.419 2.493 0.601 1.083 0.664 2.32 0.19 3.711v0c-0.368 0.999-0.925 1.765-1.669 2.298-0.744 0.533-1.624 0.785-2.639 0.755v0l1.765 7.315-2.087-0.711z" fill="#ffc604" data-fill-palette-color="accent"></path><path d="M93.068 183.264v0l-4.639 0.06-0.197-15.342 4.548-0.059c2.261-0.029 4.125 0.649 5.594 2.034 1.468 1.385 2.216 3.194 2.244 5.428v0c0.028 2.214-0.619 4.072-1.943 5.572-1.324 1.507-3.193 2.276-5.607 2.307zM92.782 169.56v0l-2.664 0.034 0.156 12.09 2.753-0.036c1.895-0.024 3.321-0.631 4.276-1.821 0.956-1.19 1.422-2.662 1.4-4.417v0c-0.021-1.669-0.582-3.069-1.68-4.199-1.099-1.123-2.512-1.674-4.241-1.651z" fill="#ffc604" data-fill-palette-color="accent"></path><path d="M117.336 178.162l0.364 1.575-8.34 1.925-3.451-14.95 8.224-1.898 0.363 1.575-6.425 1.483 1.182 5.122 5.677-1.31 0.363 1.575-5.676 1.31 1.178 5.103z" fill="#ffc604" data-fill-palette-color="accent"></path><path d="M132.313 169.268v0c0.555 1.231 0.558 2.371 0.009 3.42-0.54 1.053-1.473 1.878-2.801 2.477v0c-1.467 0.661-2.847 0.926-4.139 0.793v0l-0.816-1.81c1.357 0.308 2.763 0.134 4.218-0.522v0c0.867-0.391 1.465-0.893 1.793-1.508 0.322-0.612 0.318-1.285-0.012-2.019v0c-0.137-0.303-0.32-0.549-0.551-0.737-0.225-0.191-0.518-0.325-0.881-0.401-0.357-0.08-0.687-0.132-0.99-0.156-0.3-0.018-0.7-0.031-1.199-0.04v0c-0.104-0.004-0.254-0.006-0.451-0.004v0c-0.718 0.01-1.268 0.002-1.651-0.022-0.386-0.03-0.863-0.111-1.432-0.241-0.572-0.136-1.049-0.377-1.431-0.723-0.388-0.343-0.709-0.797-0.964-1.36v0c-0.536-1.188-0.53-2.31 0.016-3.366 0.546-1.056 1.461-1.873 2.746-2.453v0c1.207-0.544 2.328-0.79 3.365-0.739v0l0.795 1.764c-1.091-0.172-2.225 0.007-3.401 0.538v0c-0.843 0.38-1.424 0.879-1.744 1.496-0.32 0.618-0.336 1.246-0.049 1.883v0c0.15 0.333 0.348 0.602 0.593 0.805 0.251 0.201 0.595 0.341 1.032 0.421 0.431 0.083 0.791 0.129 1.079 0.137 0.288 0.009 0.732 0.013 1.33 0.014v0c0.566-0.007 0.999-0.009 1.3-0.006 0.303 0.009 0.709 0.052 1.218 0.13 0.509 0.077 0.918 0.192 1.228 0.344 0.309 0.152 0.632 0.39 0.966 0.713 0.341 0.32 0.616 0.711 0.824 1.172z" fill="#ffc604" data-fill-palette-color="accent"></path><path d="M134.693 154.499l8.392 12.844-1.545 1.009-8.392-12.844z" fill="#ffc604" data-fill-palette-color="accent"></path><path d="M158.196 152.148l0.063 0.037c-0.244 1.519-1.065 2.953-2.463 4.301v0c-1.704 1.643-3.563 2.461-5.576 2.452-2.008-0.013-3.859-0.898-5.553-2.655v0c-1.611-1.671-2.417-3.536-2.417-5.596 0.009-2.06 0.799-3.847 2.369-5.361v0c1.302-1.256 2.622-2.043 3.959-2.362v0l1.371 1.422c-1.463 0.274-2.786 0.982-3.969 2.122v0c-1.23 1.186-1.846 2.556-1.845 4.107-0.009 1.552 0.63 2.996 1.918 4.332v0c1.316 1.364 2.733 2.067 4.251 2.109 1.518 0.042 2.95-0.586 4.295-1.883v0c0.742-0.716 1.288-1.524 1.639-2.425v0l-3.324-3.447-2.427 2.34-1.122-1.163 3.756-3.622 5.089 5.278z" fill="#ffc604" data-fill-palette-color="accent"></path><path d="M160.331 140.525l5.443 3.487-0.995 1.554-12.92-8.276 1.248-1.949 7.521 0.244 7.693 0.308c-1.27-0.742-3.145-1.908-5.626-3.497v0l-5.461-3.498 0.996-1.554 12.919 8.276-1.253 1.957-7.473-0.226c-1.506-0.041-2.905-0.088-4.198-0.141-1.292-0.054-2.217-0.097-2.772-0.13v0l-0.807-0.054c1.376 0.787 3.271 1.953 5.685 3.499z" fill="#ffc604" data-fill-palette-color="accent"></path><path d="M174.153 117.104v0c1.27 0.458 2.091 1.249 2.463 2.374 0.381 1.12 0.324 2.365-0.17 3.735v0c-0.546 1.514-1.317 2.689-2.312 3.525v0l-1.867-0.674c1.165-0.76 2.019-1.891 2.561-3.392v0c0.323-0.895 0.378-1.674 0.164-2.338-0.215-0.657-0.701-1.123-1.458-1.396v0c-0.313-0.113-0.617-0.152-0.912-0.117-0.293 0.029-0.594 0.146-0.902 0.353-0.306 0.201-0.573 0.401-0.801 0.602-0.222 0.203-0.509 0.481-0.863 0.834v0c-0.075 0.072-0.181 0.179-0.317 0.321v0c-0.492 0.522-0.881 0.912-1.164 1.17-0.29 0.256-0.68 0.543-1.17 0.861-0.496 0.316-1.001 0.491-1.515 0.525-0.516 0.04-1.065-0.045-1.648-0.255v0c-1.226-0.442-2.028-1.227-2.406-2.354-0.378-1.126-0.328-2.353 0.15-3.678v0c0.449-1.245 1.053-2.222 1.811-2.932v0l1.82 0.657c-0.883 0.664-1.544 1.603-1.981 2.817v0c-0.314 0.87-0.36 1.634-0.139 2.294 0.222 0.66 0.661 1.108 1.318 1.345v0c0.344 0.124 0.674 0.169 0.991 0.135 0.319-0.041 0.659-0.19 1.02-0.449 0.36-0.252 0.643-0.479 0.85-0.679 0.207-0.201 0.519-0.516 0.935-0.946v0c0.389-0.411 0.689-0.724 0.901-0.937 0.218-0.211 0.531-0.473 0.941-0.785 0.409-0.312 0.777-0.526 1.101-0.642 0.325-0.116 0.72-0.182 1.185-0.198 0.468-0.022 0.939 0.053 1.414 0.224z" fill="#ffc604" data-fill-palette-color="accent"></path><path d="M1.886 93.464c0-3.237 2.624-5.861 5.861-5.861 3.237 0 5.861 2.624 5.861 5.861 0 3.237-2.624 5.861-5.861 5.861-3.237 0-5.861-2.624-5.861-5.861z" fill="#ffc604" data-fill-palette-color="accent"></path><path d="M169.716 93.464c0-3.237 2.624-5.861 5.861-5.861 3.237 0 5.861 2.624 5.861 5.861 0 3.237-2.624 5.861-5.861 5.861-3.237 0-5.861-2.624-5.861-5.861z" fill="#ffc604" data-fill-palette-color="accent"></path></g></svg></g></svg></g></svg></g><defs></defs></svg><rect width="395.52" height="120.45985872185607" fill="none" stroke="none" visibility="hidden"></rect></g></svg></g></svg>